<svg width="97" height="95" viewBox="0 0 97 95" fill="none" xmlns="http://www.w3.org/2000/svg">
<path d="M82.5672 0L5.10077 1.27486L1.2752 1.59373L0 94.0436L95.0003 94.9999L96.2755 0.637428L82.5672 0Z" fill="#A8B5DE"/>
<path d="M80.1868 0L4.95357 1.24131L1.23828 1.55179L0 94L92.2614 92.5L95.5 9L80.1868 0Z" fill="#F6F6F6"/>
<path d="M37.6177 36.6615V47.1815L38.2554 47.5004H49.0944L59.6145 47.1815V36.3426L59.2956 36.0237H48.7755L37.6177 36.6615Z" fill="#FCF7E4"/>
<path d="M59.6143 36.3423V47.1813H69.4969V36.3423H59.6143Z" fill="#040305"/>
<path d="M14.9834 58.339L22.3157 58.9764L34.4298 58.6579L38.2554 47.5001L37.6176 47.1812L26.7787 45.5874L31.8794 13.0706H22.3157L21.9968 20.4025H14.9834V58.339Z" fill="#F4A897"/>
<path d="M26.7783 45.5874L37.6173 47.1812V36.6611L48.7751 36.0233L49.094 25.8221L59.2952 25.5033L69.4967 24.8658L69.1778 20.4025L59.2952 20.0839L58.9767 13.0706H31.8791L26.7783 45.5874Z" fill="#A8B5DE"/>
<path d="M54.5136 70.4531H48.7754L49.0943 80.9732H54.195L54.5136 70.4531Z" fill="#75B182"/>
<path d="M34.4296 58.658L22.3154 58.9765L26.7784 69.8155L29.3288 70.1343L34.4296 62.4832V58.658Z" fill="#F3A119"/>
<path d="M38.2549 70.1343V80.9733H49.0939L48.775 70.4532L48.4561 70.1343H38.2549Z" fill="#BAB384"/>
<path d="M26.7783 80.9735H38.255V70.1345H36.9799H29.3287L26.7783 69.8157V80.9735Z" fill="#A9CE5F"/>
<path d="M49.0943 25.8223L48.7754 36.0235H59.2955V25.5034L49.0943 25.8223Z" fill="#EECCDF"/>
<path d="M38.2553 47.5L34.4297 58.6578V62.4831L36.9801 70.1342H38.2553H48.4565L49.0942 47.5H38.2553Z" fill="#F8D31C"/>
<path d="M34.4299 62.4834L29.3291 70.1346H36.9803L34.4299 62.4834Z" fill="#F8D31C"/>
<path d="M59.2955 25.5032L69.497 24.8657V36.3421H74.9163V46.8622L83.2049 47.1811L83.5238 54.1944L74.9163 54.8322L69.1781 70.1342L54.5136 70.4531H48.7754L48.4565 70.1342L49.0943 47.5L59.6144 47.1811H69.497V36.3421H59.6144L59.2955 36.0232V25.5032Z" fill="#CBDC68"/>
</svg>
