<svg width="95" height="96" viewBox="0 0 95 96" fill="none" xmlns="http://www.w3.org/2000/svg">
<path d="M94.6836 1.58333L20.9 0H16.7833L0.316667 0.316666L0 94.3668L88.0334 95H94.6836V1.58333Z" fill="#F2B460"/>
<path d="M94.6836 1.58333L20.9 0H16.7833L0.316667 0.316666L2.5 50L0 94.3668L33.5 93L69 95.5L94.6836 85.5V1.58333Z" fill="#FCF7E4"/>
<path d="M26.6001 36.4167V47.5002H37.6833V36.7335L26.6001 36.4167Z" fill="#FCF7E4"/>
<path d="M37.5469 34.1333V34.5235V47.7866H48.2049H58.8628H68.2669V34.1333H58.8628H37.5469Z" fill="#FCF7E4"/>
<path d="M47.7866 35.8401V36.1733V47.5002H51.9314H56.0762H59.7333V35.8401H56.0762H47.7866Z" fill="#040305"/>
<path d="M21.8501 76.6335L26.2834 76.3168V72.2H21.8501V76.6335Z" fill="#5872AC"/>
<path d="M14.8833 25.3333V47.4999H26.6V36.4165V25.6499L26.2833 25.3333H14.8833Z" fill="#96899F"/>
<path d="M14.8833 20.5834V25.3334H26.2833L25.9666 13.6167H21.85L21.5333 20.5834H14.8833Z" fill="#91A9C7"/>
<path d="M21.5333 65.55L21.85 72.1998H26.2833V70.9332L26.6 59.5333L14.8833 58.2666V65.55H21.5333Z" fill="#91A9C7"/>
<path d="M37.3667 70.6167L26.2832 70.9331V72.1998V76.3166L26.9165 81.0666H36.7331L37.3667 70.6167Z" fill="#B1C13E"/>
<path d="M26.5999 59.5334L26.2832 70.9333L37.3667 70.6169L37.6831 69.6666V59.5334H26.5999Z" fill="#BAB384"/>
<path d="M37.6833 25.3333L26.6001 25.6499V36.4165L37.6833 36.7332V36.4165V25.3333Z" fill="#D99BB4"/>
<path d="M14.8833 47.5V58.2667L26.6 59.5334H37.6832V47.5H26.6H14.8833Z" fill="#D99BB4"/>
<path d="M25.9668 13.6167L26.2835 25.3334L26.6001 25.65L37.6834 25.3334V13.9334L25.9668 13.6167Z" fill="#A8B5DE"/>
<path d="M26.2835 35.8401L26.6002 47.5567L26.9169 47.8734L38.0001 47.5567V36.1567L26.2835 35.8401Z" fill="#A8B5DE"/>
<path d="M37.6836 47.5V59.5334L48.4503 58.9002V47.5H37.6836Z" fill="#F4A897"/>
<path d="M48.4503 58.9001L37.6836 59.5333V69.6665H46.5504L48.767 59.5333L48.4503 58.9001Z" fill="#F2B460"/>
<path d="M48.4501 13.9333L47.8169 25.3334H59.2168V20.2667L58.9003 13.9333H48.4501Z" fill="#E4AFCA"/>
<path d="M68.2666 37.5466V47.7866L75.0933 47.2852V37.5466H68.2666Z" fill="#E4AFCA"/>
<path d="M59.2167 58.9001L48.7668 59.5333L46.5502 69.6665H37.6833L37.3669 70.6168L36.7334 81.0667H53.2L53.8335 70.6168L68.4003 69.9833L68.7167 62.6999L74.417 58.9001H59.2167Z" fill="#E1CE85"/>
<path d="M37.6836 25.3333V36.4165H59.217V25.3333H47.8171H37.6836Z" fill="#F2C4AD"/>
<path d="M48.4502 47.5V58.9002L48.767 59.5334L59.2169 58.9002V47.5H48.4502Z" fill="#F2C4AD"/>
<path d="M37.6836 13.9333V25.3334H47.8171L48.4503 13.9333H37.6836Z" fill="#EECCDF"/>
<path d="M59.2168 20.2666V25.3333H68.7168L68.4004 20.5833L59.2168 20.2666Z" fill="#EECCDF"/>
<path d="M59.2168 25.3333V36.4165H68.7168V25.3333H59.2168Z" fill="#F9E2BD"/>
<path d="M74.4171 46.8667L68.7168 47.4999H59.2168V58.9001H74.4171L83.2836 53.1998L82.6504 47.4999L74.4171 46.8667Z" fill="#F9E2BD"/>
</svg>
