<svg width="96" height="95" viewBox="0 0 96 95" fill="none" xmlns="http://www.w3.org/2000/svg">
<path d="M3.14558 4.4046L0 82.1029L0.314323 95.0002L51.2745 94.3713L51.5891 90.911L56.937 94.0566L95.3141 93.113V2.20267L81.1586 1.25903L3.14558 4.4046Z" fill="#F5F7FF"/>
<path d="M60.5 94L45 94.5L51.5893 90.9104L60.5 94Z" fill="#4275E0"/>
<path d="M81.1587 1.25827L3.14569 4.40396L0 82.1024L0.314569 0L81.1587 1.25827Z" fill="#4275E0"/>
<path d="M36.4902 36.8044V37.4338V47.8145H47.8146V45.2978V37.1191L36.4902 36.8044Z" fill="#FCF7E4"/>
<path d="M47.8145 45.2979V47.8145V48.1291H57.5662L58.1955 47.8145V45.2979H47.8145Z" fill="#040305"/>
<path d="M25.4803 29.5703H13.8413V36.8051H25.4803V29.5703Z" fill="#020567"/>
<path d="M25.4803 14.1565L13.8413 25.4808L24.8513 25.7955L25.4803 17.6167V14.1565Z" fill="#040F4B"/>
<path d="M47.8145 36.8044V37.1191V45.2978H58.1955V37.1191L57.8808 36.8044H53.7913H50.0167H47.8145Z" fill="#040F4B"/>
<path d="M24.8513 25.7955L13.8413 25.4808V29.5703H25.4803L25.795 25.7955H36.4903V19.8186L25.4803 17.6167L24.8513 25.7955Z" fill="#061C79"/>
<path d="M25.48 14.1565V17.6167L36.49 19.8187L36.8046 14.1565H25.48Z" fill="#0E26C9"/>
<path d="M13.8413 36.8044V47.8145H25.4803V37.7484V36.8044H13.8413Z" fill="#0E26C9"/>
<path d="M47.5 81.1595H52.8475L53.1622 71.4078L47.5 70.7788V81.1595Z" fill="#0E26C9"/>
<path d="M25.1659 59.4534L20.7617 59.768V65.4302H25.1659L25.4802 60.3974L25.1659 59.4534Z" fill="#3B6413"/>
<path d="M36.4903 37.4346L25.4803 37.7492V47.8153H13.8413V59.1399L20.7618 59.7689L25.166 59.4542L25.4803 48.1299L36.4903 47.8153V37.4346Z" fill="#5872AC"/>
<path d="M25.48 81.1595H36.49L36.1753 70.4641H25.48V81.1595Z" fill="#5872AC"/>
<path d="M36.8046 14.1565L36.49 19.8187V25.7955H25.7946L25.48 29.5704V36.8052V37.7491L36.49 37.4345V36.8052V26.1101L47.5 25.7955V25.1662V14.1565H36.8046Z" fill="#4275E0"/>
<path d="M61.9698 25.7948H67.9466V21.3906H61.3408L61.9698 25.7948Z" fill="#4275E0"/>
<path d="M67.9469 37.1191L67.3179 37.4338V47.8145L73.6094 47.4998V37.1191H67.9469Z" fill="#4275E0"/>
<path d="M25.4799 48.1298L25.1655 59.4541L25.4799 60.3981H36.1752L36.8045 56.9376L36.4899 47.8152L25.4799 48.1298Z" fill="#96899F"/>
<path d="M47.5 14.1565V25.1662L57.566 26.4245L57.8807 36.8052L58.1953 37.1198L67.3177 37.4345L67.9467 37.1198V25.7955H61.9699L61.3409 21.3913L57.566 14.1565H47.5Z" fill="#7290DF"/>
<path d="M73.6096 47.4998L67.3181 47.8144H58.1957L57.5664 48.1291V70.4634H67.6328L73.6096 55.3642L82.4173 55.0495L82.1027 47.8144L73.6096 47.4998Z" fill="#7290DF"/>
<path d="M36.1753 70.4641L36.49 81.1595H47.4999V70.7788L36.1753 70.4641Z" fill="#7290DF"/>
<path d="M58.1953 37.1191V45.2979V47.8145H67.3177V37.4338L58.1953 37.1191Z" fill="#75B182"/>
<path d="M25.4799 60.3979L25.1655 65.4308L25.4799 70.464H36.1752V60.3979H25.4799Z" fill="#75B182"/>
<path d="M36.4902 26.1101V36.8051L47.8146 37.1197V36.8051L47.5002 25.7954L36.4902 26.1101Z" fill="#91A9C7"/>
<path d="M43.4104 56.3086L36.8046 56.9376L36.1753 60.3982V70.4642L47.4999 70.7789L53.1621 71.4079L57.566 70.4642V48.1299H47.8143L43.4104 56.3086Z" fill="#85BBD2"/>
<path d="M47.5 25.1655V25.7948L47.8143 36.8045H50.0166H53.7911H57.8807L57.566 26.4238L47.5 25.1655Z" fill="#A8B5DE"/>
<path d="M36.4902 47.8152L36.8049 56.9376L43.4107 56.3086L47.8146 48.1298V47.8152H36.4902Z" fill="#A8B5DE"/>
</svg>
