<svg width="98" height="95" viewBox="0 0 98 95" fill="none" xmlns="http://www.w3.org/2000/svg">
<path d="M70.929 0L59.6961 1.2838H34.3414H23.1082L0 2.88831V93.3951L96.2838 95L97.5676 1.6045L70.929 0Z" fill="#43A768"/>
<path d="M93.5 5L59.5 3.0001L33.5 1.60449L23 3.0001L0 2.88841V93.3952H96.5L97.5676 1.6046L93.5 5Z" fill="#F4F9D7"/>
<path d="M26.3174 48.1418V48.4629V59.054V66.4358V67.3986L47.179 73.1756L48.4628 82.4829L54.2397 82.1622V71.5711L48.7838 68.0403L40.4393 67.3986L38.5134 60.3378L37.5506 48.4629L26.3174 48.1418Z" fill="#06530D"/>
<path d="M53.9191 25.9966L50.3887 36.9088L59.3753 37.2298L59.0543 26.3176L53.9191 25.9966Z" fill="#8D985B"/>
<path d="M38.5137 26.3176V37.2298H45.2537L44.9327 26.3176H38.5137Z" fill="#8D985B"/>
<path d="M48.4629 48.4629L48.7839 60.3378H59.054V48.4629H49.1046H48.4629Z" fill="#8D985B"/>
<path d="M38.5135 37.2297L37.5508 48.4629H48.463H49.1047V37.8715L48.784 37.2297H45.2536H38.5135Z" fill="#FCF7E4"/>
<path d="M69.6451 37.2297L59.696 37.5508L59.375 40.1184V48.4629H64.5102H69.6451V37.2297Z" fill="#FCF7E4"/>
<path d="M14.4424 21.5034V36.9087L21.1821 37.2298L25.9966 37.5508L26.3173 26.3176H38.5133H44.9324H48.7838V14.4426H21.8242V21.5034H14.4424Z" fill="#040305"/>
<path d="M50.3883 36.9089L49.1045 37.8717V48.4632H59.0539H59.3749V40.1186V37.551V37.23L50.3883 36.9089Z" fill="#040305"/>
<path d="M26.6384 82.483L37.2296 82.1623L36.2668 71.8918H26.3174L26.6384 82.483Z" fill="#040305"/>
<path d="M26.3174 67.3987V71.8918H36.2668L37.2296 82.1623L48.4628 82.483L47.179 73.1756L26.3174 67.3987Z" fill="#0B140B"/>
<path d="M21.1821 37.2297L21.8242 48.7836L26.3174 48.4629V48.1419L25.9967 37.5508L21.1821 37.2297Z" fill="#2A3830"/>
<path d="M40.4396 67.3987L48.7841 68.0404V67.0776V60.6589L38.5137 60.3379L40.4396 67.3987Z" fill="#0B463D"/>
<path d="M48.7837 14.4426V26.3176L53.9186 25.9965L59.0538 26.3176L69.6449 25.6759L69.3243 21.5034H59.6959L57.449 14.4426H55.5234H48.7837Z" fill="#3B6413"/>
<path d="M14.4424 36.9089V48.7839H21.8242L21.1821 37.23L14.4424 36.9089Z" fill="#3B6413"/>
<path d="M26.3176 59.0542L21.5034 60.017V66.115L26.3176 66.436V59.0542Z" fill="#3B6413"/>
<path d="M25.9966 37.5509L26.3173 26.3176H38.5133V37.2298L37.5505 48.463H48.4627L48.7837 60.338V60.659L38.5133 60.338L37.5505 48.463L26.3173 48.142L25.9966 37.5509Z" fill="#498B34"/>
<path d="M44.9321 26.3176L45.2532 37.2298H48.7835V26.3176H44.9321Z" fill="#498B34"/>
<path d="M26.3173 48.4629L21.8242 48.7836H14.4424V59.6958L21.5031 60.0168L26.3173 59.054V48.4629Z" fill="#498B34"/>
<path d="M48.7837 60.3379V60.6589V67.0776L59.0538 65.4731V60.3379H48.7837Z" fill="#43A768"/>
<path d="M59.0538 65.4731L48.7837 67.0777V68.0404L54.2396 71.5711V82.1623L54.5607 71.8918L59.6959 71.5711L59.0538 65.4731Z" fill="#75B182"/>
<path d="M64.5103 48.4629L71.25 60.6589L75.1014 60.3378L75.4224 55.8447L84.4087 55.5237L84.0877 48.4629H75.4224H69.6451H64.5103Z" fill="#B1C13E"/>
<path d="M59.375 37.5508V40.1184L59.696 37.5508H59.375Z" fill="#BAB384"/>
<path d="M59.0542 26.3175L69.6453 25.6758V37.2297L75.4227 37.8714V48.4629H69.6453V37.2297L59.6963 37.5507H59.3752V37.2297L59.0542 26.3175Z" fill="#A9CE5F"/>
<path d="M53.9186 25.9966L48.7837 26.3176V37.2298L49.1044 37.8715L50.3882 36.9088L53.9186 25.9966Z" fill="#A9CE5F"/>
<path d="M59.0542 48.4629V60.3378V65.4731L59.6963 71.5711H69.3247L71.2502 63.5472V60.6589L64.5105 48.4629H59.3752H59.0542Z" fill="#A9CE5F"/>
<path d="M75.1014 60.3379L71.25 60.6589V63.5472L75.1014 60.3379Z" fill="#E1CE85"/>
</svg>
