<svg width="96" height="95" viewBox="0 0 96 95" fill="none" xmlns="http://www.w3.org/2000/svg">
<path d="M29.5266 3.85101L6.09789 1.28345L0.320941 1.60447L0 90.5053L8.02353 91.147L73.4954 94.0356L95.9614 92.4308V1.60447L87.6167 0L84.4074 3.85101L52.9552 0H31.1312L29.5266 3.85101Z" fill="#FCEFE4"/>
<path d="M73.4952 94.0373L8.66518 95.0002L8.0233 91.1489L73.4952 94.0373Z" fill="#EE2430"/>
<path d="M29.5263 3.84962L6.09766 1.28209L40.5 0.00170898L29.5263 3.84962Z" fill="#EE2430"/>
<path d="M84.4072 3.84962L52.955 0.00170898H87.6166L84.4072 3.84962Z" fill="#EE2430"/>
<path d="M38.5129 47.8202L49.4249 47.4992V37.5499L38.1919 36.5872L38.5129 47.8202Z" fill="#FCF7E4"/>
<path d="M49.4248 36.5872V37.5499V47.4992H50.0669H60.0158V36.5872H58.0903H49.4248Z" fill="#040305"/>
<path d="M49.7458 36.2664L49.4248 36.5874H58.0903L49.7458 36.2664Z" fill="#3B6413"/>
<path d="M22.7866 13.1587L19.5772 20.54L15.084 25.6752V47.4992H26.6379V25.6752L38.1916 25.0334L37.5499 13.1587H22.7866Z" fill="#EE2430"/>
<path d="M26.6379 70.6069L15.084 74.4583V81.5189H26.6379V70.6069Z" fill="#EE2430"/>
<path d="M37.5498 13.1587L38.1915 25.0334H49.1035L49.4246 13.1587H37.5498Z" fill="#EC5C31"/>
<path d="M15.084 20.5403V25.6754L19.5772 20.5403H15.084Z" fill="#EC5C31"/>
<path d="M15.084 47.4993V59.0533H26.6379V47.4993H15.084Z" fill="#EC5C31"/>
<path d="M26.6377 70.6069V81.5189H38.1914V70.6069H26.6377Z" fill="#EC5C31"/>
<path d="M15.084 59.053V74.4581L26.6379 70.6067V59.053H15.084Z" fill="#E77552"/>
<path d="M49.4245 13.1587L49.1035 25.0334L49.7456 25.6752L60.0155 25.0334V20.54V13.4794L49.4245 13.1587Z" fill="#EB7C2E"/>
<path d="M26.6377 25.6752V47.4992V59.0532V70.6069H38.1914V59.3739L49.1034 59.0532L50.0665 47.4992H49.4244L38.5124 47.8202L38.1914 36.5872V25.0334L26.6377 25.6752Z" fill="#EB7C2E"/>
<path d="M60.0156 20.5403V25.0337H69.9649V20.5403H60.0156Z" fill="#F3A119"/>
<path d="M38.1919 25.0334V36.5872L49.4249 37.5499V36.5872L49.746 36.2661V25.6752L49.1039 25.0334H38.1919Z" fill="#F3A119"/>
<path d="M38.1919 59.3737V70.6067V81.5187H54.5601L54.8811 71.2488L49.4249 68.6812L49.1039 59.053L38.1919 59.3737Z" fill="#F3A119"/>
<path d="M60.0155 25.0334L49.7456 25.6752V36.2661L58.09 36.5872H60.0155L69.9648 36.2661V25.0334H60.0155Z" fill="#F8D31C"/>
<path d="M69.9648 47.8202L60.0155 47.4992H50.0666L49.1035 59.0532L49.4245 68.6814L54.8807 71.249L69.6437 70.6069L75.7416 55.2019L84.4071 54.5598L84.086 47.8202L75.7416 47.4992L75.4209 36.5872H70.2858L69.9648 47.8202Z" fill="#F8D31C"/>
</svg>
