<svg width="95" height="95" viewBox="0 0 95 95" fill="none" xmlns="http://www.w3.org/2000/svg">
<path d="M89.9835 0L31.6666 0.940592L23.2012 1.25412L1.25415 4.07589L0 94.3728L93.1187 95L94.0592 4.07589L89.9835 0Z" fill="#EE24CC"/>
<path d="M89.9835 0L31.6666 0.940592L23.2012 1.25412L4.5 8L0.5 95H94.0592V22.5L91 4.5L89.9835 0Z" fill="#F9F1FA"/>
<path d="M37.3107 37.3103L36.9971 37.6239V47.6571V47.9704L47.6571 48.284L58.6308 47.6571V37.9375L47.9708 37.3103H37.3107Z" fill="#FCF7E4"/>
<path d="M68.0363 37.3103L58.6304 37.9375V47.6571L58.944 48.284H68.0363V37.3103Z" fill="#040305"/>
<path d="M14.7363 21.6335V37.3099H25.71L26.3369 26.3365H36.997L37.3106 14.7358H21.9476L21.634 21.6335H14.7363Z" fill="#020567"/>
<path d="M47.9702 71.4851L48.2838 81.5183L53.3004 81.2046V71.4851H47.9702Z" fill="#0E26C9"/>
<path d="M47.9703 59.5708L47.6567 70.8578L47.9703 71.4847H53.3006L58.3168 70.5441L58.6304 59.5708H58.3168H47.9703Z" fill="#235091"/>
<path d="M25.71 37.3099H14.7363V48.2836L25.0831 48.5973L26.3369 47.6567V37.6236H36.997L37.3106 37.3099L36.997 26.65L47.6571 26.3365H47.9707L47.6571 14.7358H37.3106L36.997 26.3365H26.3369L25.71 37.3099Z" fill="#EE2430"/>
<path d="M58.6305 21.6335L57.6899 26.3365H68.0364V21.6335H58.6305Z" fill="#EE2430"/>
<path d="M26.3369 81.2046L32.6076 81.5183V70.5446L26.3369 70.231V81.2046Z" fill="#498B34"/>
<path d="M58.6305 59.5708L58.3169 70.5441H68.0364V63.3329L73.6799 60.1977L58.6305 59.5708Z" fill="#4275E0"/>
<path d="M58.6305 47.6567L47.6568 48.2836V58.6301L37.3104 59.2573L36.9968 70.5443H32.6074V81.518H37.624L37.3104 70.8579H47.6568L47.9704 59.571H58.3169L58.9441 48.2836L58.6305 47.6567Z" fill="#43A768"/>
<path d="M47.6567 14.7358L47.9703 26.3365H57.6899L58.6304 21.6335L58.0035 14.7358H47.6567Z" fill="#EC5C31"/>
<path d="M26.3369 37.6238V47.6569H36.997V37.6238H26.3369Z" fill="#EB7C2E"/>
<path d="M14.7363 59.2574L21.634 59.571H25.0831V48.5973L14.7363 48.2837V59.2574Z" fill="#EB7C2E"/>
<path d="M73.6799 47.9702L68.0364 48.2838H58.9441L58.3169 59.5711H58.6305L73.6799 60.198V55.4951L82.1453 55.1815V48.2838L73.6799 47.9702Z" fill="#6FAABE"/>
<path d="M37.3105 70.8579L37.6242 81.518H48.2842L47.9706 71.4848L47.657 70.8579H37.3105Z" fill="#6FAABE"/>
<path d="M36.9971 26.6502L37.3107 37.3101H47.9708L47.6571 26.3367L36.9971 26.6502Z" fill="#F3A119"/>
<path d="M26.3363 47.6567L25.0825 48.5973V59.571H26.3363L36.9964 58.6301V47.97V47.6567H26.3363Z" fill="#F3A119"/>
<path d="M36.9968 58.6303L26.3367 59.5711L26.0234 65.5279L26.3367 70.2309L32.6074 70.5445H36.9968L37.3104 59.2575L47.6568 58.6303V48.2838L36.9968 47.9702V58.6303Z" fill="#B1C13E"/>
<path d="M47.9703 37.3101L47.6567 26.3367H47.9703H57.6899H68.0363V37.3101L73.6798 37.6237V47.9702L68.0363 48.2838V37.3101L58.6304 37.9374L47.9703 37.3101Z" fill="#F8D31C"/>
<path d="M21.6338 65.2143L26.0235 65.5276L26.3368 59.5708H25.0829H21.6338V65.2143Z" fill="#F8D31C"/>
</svg>
